<?xml version="1.0" encoding="UTF-8"?>
<svg width="84px" height="60px" viewBox="0 0 84 60" version="1.1" xmlns="http://www.w3.org/2000/svg" xmlns:xlink="http://www.w3.org/1999/xlink">
    <!-- Generator: Sketch 52.2 (67145) - http://www.bohemiancoding.com/sketch -->
    <title>Amex</title>
    <desc>Created with Sketch.</desc>
    <g id="Amex" stroke="none" stroke-width="1" fill="none" fill-rule="evenodd">
        <rect fill="#FFFFFF" x="0" y="0" width="84" height="60"></rect>
        <g id="amex">
            <path d="M5.24568493,0.00714285714 L78.6864247,0.00714285714 C81.5821233,0.00714285714 83.9321096,2.34114286 83.9321096,5.21971429 L83.9321096,54.7154286 C83.9321096,57.5914286 81.5821233,59.9254286 78.6864247,59.9254286 L5.24568493,59.9254286 C2.34739726,59.9257143 0,57.5914286 0,54.7157143 L0,5.21971429 C0,2.34114286 2.3499863,0.00714285714 5.24568493,0.00714285714 Z" id="Path" fill="#26A6D1"></path>
            <path d="M13.5340685,20.8474286 L5.24568493,39.0645714 L15.1680411,39.0645714 L16.3981233,36.16 L19.2098219,36.16 L20.4399041,39.0645714 L31.3616301,39.0645714 L31.3616301,36.8477143 L32.3348219,39.0645714 L37.9843973,39.0645714 L38.957589,36.8008571 L38.957589,39.0645714 L61.6718219,39.0645714 L64.4337534,36.2354286 L67.0199178,39.0645714 L78.6864247,39.088 L70.371863,30.0068571 L78.6864247,20.8474286 L67.200863,20.8474286 L64.5122877,23.6242857 L62.0075342,20.8474286 L37.2974384,20.8474286 L35.1755753,25.5494286 L33.0039452,20.8474286 L23.1023014,20.8474286 L23.1023014,22.9888571 L22.0008082,20.8474286 C22.0008082,20.8474286 13.5340685,20.8474286 13.5340685,20.8474286 Z M15.4539863,23.4342857 L20.2906027,23.4342857 L25.7882877,35.7874286 L25.7882877,23.4342857 L31.0866164,23.4342857 L35.3329315,32.2914286 L39.246411,23.4342857 L44.518274,23.4342857 L44.518274,36.5062857 L41.3104521,36.5062857 L41.284274,26.2631429 L36.6076027,36.5062857 L33.7380822,36.5062857 L29.0352329,26.2631429 L29.0352329,36.5062857 L22.4360548,36.5062857 L21.1849726,33.5757143 L14.4258493,33.5757143 L13.1773562,36.5037143 L9.64158904,36.5037143 C9.64158904,36.5037143 15.4539863,23.4342857 15.4539863,23.4342857 Z M47.4530959,23.4342857 L60.4966849,23.4342857 L64.4861096,27.7142857 L68.6041233,23.4342857 L72.5935479,23.4342857 L66.5320274,30.0042857 L72.5935479,36.4985714 L68.4231781,36.4985714 L64.4337534,32.1688571 L60.2947397,36.4985714 L47.4530959,36.4985714 L47.4530959,23.4342857 Z M17.8068493,25.646 L15.5799863,30.8665714 L20.0311233,30.8665714 L17.8068493,25.646 Z M50.6741507,26.1408571 L50.6741507,28.5271429 L57.7899863,28.5271429 L57.7899863,31.1868571 L50.6741507,31.1868571 L50.6741507,33.792 L58.655589,33.792 L62.3642466,29.9548571 L58.8129452,26.1385714 L50.6741507,26.1385714 L50.6741507,26.1408571 Z" id="Shape" fill="#FFFFFF" fill-rule="nonzero"></path>
        </g>
    </g>
</svg>