<?xml version="1.0" encoding="UTF-8"?>
<svg width="120px" height="81px" viewBox="0 0 120 81" version="1.1" xmlns="http://www.w3.org/2000/svg" xmlns:xlink="http://www.w3.org/1999/xlink">
    <!-- Generator: Sketch 52.2 (67145) - http://www.bohemiancoding.com/sketch -->
    <title>Master Card</title>
    <desc>Created with Sketch.</desc>
    <g id="Master-Card" stroke="none" stroke-width="1" fill="none" fill-rule="evenodd">
        <g id="mastercard" transform="translate(10.000000, 10.000000)">
            <path d="M100,29.8421053 C100,46.2631579 86.6666667,59.6842105 70,59.6842105 C53.4920635,59.6842105 40,46.2631579 40,29.8421053 C40,13.4210526 53.3333333,0 69.8412698,0 C86.6666667,-2.80477396e-15 100,13.4210526 100,29.8421053 Z" id="Path" fill="#F8A81C"></path>
            <path d="M60,29.8421053 C60,46.2631579 46.6666667,59.6842105 30,59.6842105 C13.4920635,59.6842105 0,46.2631579 0,29.8421053 C0,13.4210526 13.3333333,0 29.8412698,0 C46.6666667,-2.80477396e-15 60,13.4210526 60,29.8421053 Z" id="Path-Copy-24" fill="#EE041D"></path>
            <path d="M50.2126318,52.0515306 C44.0511517,46.5772682 40.1587302,38.6226956 40.1587302,29.8026316 C40.1587302,20.9885842 44.0001123,13.0388477 50.1119258,7.5649388 C56.2988382,13.0400664 60.1587302,21.006848 60.1587302,29.8421053 C60.1587302,38.6409925 56.330551,46.5785393 50.2126318,52.0515306 Z" id="Combined-Shape" fill="#FF6B00"></path>
        </g>
    </g>
</svg>