<?xml version="1.0" encoding="UTF-8"?>
<svg width="120px" height="81px" viewBox="0 0 120 81" version="1.1" xmlns="http://www.w3.org/2000/svg" xmlns:xlink="http://www.w3.org/1999/xlink">
    <!-- Generator: Sketch 52.2 (67145) - http://www.bohemiancoding.com/sketch -->
    <title>Visa Card</title>
    <desc>Created with Sketch.</desc>
    <g id="Visa-Card" stroke="none" stroke-width="1" fill="none" fill-rule="evenodd">
        <g id="visa" transform="translate(16.000000, 11.000000)">
            <path d="M87,54.7933898 C87,57.6266102 84.6975586,59.9233898 81.8573145,59.9233898 L5.14268555,59.9233898 C2.30244141,59.9235593 0,57.6266102 0,54.7933898 L0,5.20627119 C0,2.37305085 2.30244141,0.076440678 5.14268555,0.076440678 L81.8573145,0.076440678 C84.6977285,0.076440678 87,2.37322034 87,5.20627119 L87,54.7933898 Z" id="Path" fill="#FFFFFF"></path>
            <path d="M19.2043533,30.269899 C19.3621775,30.8635269 19.4662581,31.407253 19.5583477,31.7910169 L20.1902871,34.069322 L26.110875,18.9798305 L32.5154004,18.9798305 L22.9980762,41.0657627 L16.5989883,41.0732203 L10.7125346,21.2500115 C9.07195426,20.3995942 7.22724735,19.7090747 5.18295703,19.2147458 L5.26638867,18.7681356 L14.6321426,18.7681356 C15.9017988,18.8211864 16.9179316,19.2222034 17.2671211,20.5701695 L19.2366638,30.3515625 C19.2259717,30.3243171 19.2152015,30.2970959 19.2043533,30.269899 Z" id="Combined-Shape" fill="#3A3F73"></path>
            <g id="Group">
                <polygon id="Path" fill="#3A3F73" points="41.0113242 18.9647458 34.9598965 18.9647458 31.1804941 41.0879661 37.2218965 41.0879661"></polygon>
                <path d="M58.2714785,33.8559322 C58.2939082,31.3442373 56.6771016,29.4284746 53.1930234,27.8461017 C51.075627,26.8240678 49.7850703,26.1425424 49.8005332,25.1054237 C49.8005332,24.1891525 50.8934707,23.2049153 53.261502,23.2049153 C55.2429609,23.1745763 56.669625,23.6061017 57.785502,24.0528814 L58.3323105,24.3028814 L59.1523535,19.5101695 C57.952875,19.0632203 56.0777871,18.5862712 53.7326953,18.5862712 C47.758752,18.5862712 43.5536953,21.5847458 43.5156328,25.8852542 C43.4775703,29.0654237 46.5218906,30.8371186 48.8139668,31.8969492 C51.166875,32.9772881 51.956332,33.6686441 51.941209,34.6377966 C51.9260859,36.119661 50.0661211,36.7954237 48.3279902,36.7954237 C45.9066035,36.7954237 44.6236934,36.4623729 42.6340781,35.6355932 L41.8609336,35.2813559 L41.0116641,40.2388136 C42.4225254,40.8538983 45.033375,41.3915254 47.7436289,41.4138983 C54.096498,41.4138983 58.2259395,38.4535593 58.2714785,33.8559322 Z" id="Path" fill="#3A3F73"></path>
                <path d="M65.4595137,37.7720339 C66.1502461,37.7720339 72.3212988,37.779661 73.2021738,37.779661 C73.3843301,38.55 73.9384453,41.0957627 73.9384453,41.0957627 L79.5477363,41.0957627 L74.6517773,18.9876271 L69.9836836,18.9876271 C68.5337402,18.9876271 67.4562656,19.3813559 66.8183789,20.819661 L57.8388574,41.0957627 L64.1925762,41.0957627 C64.1920664,41.0957627 65.2241719,38.3705085 65.4595137,37.7720339 Z M69.6037383,27.0584746 C69.573832,27.1189831 70.1050078,25.7789831 70.4086582,24.9461017 L70.8183398,26.8538983 C70.8183398,26.8538983 71.9724492,32.1389831 72.2150977,33.2444068 L67.1976445,33.2444068 C67.6987441,31.9725424 69.6037383,27.0584746 69.6037383,27.0584746 Z" id="Shape" fill="#3A3F73" fill-rule="nonzero"></path>
                <path d="M81.8573145,0.076440678 L5.14268555,0.076440678 C2.30244141,0.076440678 0,2.37305085 0,5.20627119 L0,10.530339 L87,10.530339 L87,5.20627119 C87,2.37305085 84.6977285,0.076440678 81.8573145,0.076440678 Z" id="Path" fill="#1C227C"></path>
            </g>
            <path d="M81.8573145,59.9235593 L5.14268555,59.9235593 C2.30244141,59.9235593 0,57.6267797 0,54.7937288 L0,49.469661 L87,49.469661 L87,54.7937288 C87,57.6267797 84.6977285,59.9235593 81.8573145,59.9235593 Z" id="Path" fill="#F8BF00"></path>
        </g>
    </g>
</svg>